<mxfile host="65bd71144e">
    <diagram id="6HrcDLYwyHcUKDVaY7Ev" name="第 1 页">
        <mxGraphModel dx="662" dy="617" grid="1" gridSize="10" guides="1" tooltips="1" connect="1" arrows="1" fold="1" page="1" pageScale="1" pageWidth="827" pageHeight="1169" math="0" shadow="0">
            <root>
                <mxCell id="0"/>
                <mxCell id="1" parent="0"/>
                <mxCell id="7" value="" style="rounded=0;whiteSpace=wrap;html=1;fontColor=#333333;fillColor=#f5f5f5;strokeColor=#666666;" vertex="1" parent="1">
                    <mxGeometry x="140" y="240" width="680" height="540" as="geometry"/>
                </mxCell>
                <mxCell id="5" value="上传" style="rounded=0;whiteSpace=wrap;html=1;fillColor=#f5f5f5;fontColor=#000000;strokeColor=#666666;" vertex="1" parent="1">
                    <mxGeometry x="720" y="720" width="80" height="40" as="geometry"/>
                </mxCell>
                <mxCell id="4" value="读取介质信息" style="rounded=0;whiteSpace=wrap;html=1;fillColor=#f5f5f5;fontColor=#333333;strokeColor=#666666;" vertex="1" parent="1">
                    <mxGeometry x="310" y="280" width="90" height="35" as="geometry"/>
                </mxCell>
                <mxCell id="9" value="上传" style="text;html=1;align=center;verticalAlign=middle;whiteSpace=wrap;rounded=0;fontColor=#000000;" vertex="1" parent="1">
                    <mxGeometry x="160" y="250" width="60" height="30" as="geometry"/>
                </mxCell>
                <mxCell id="13" value="（电子介质基本信息）" style="rounded=0;whiteSpace=wrap;html=1;fontColor=#333333;fillColor=#f5f5f5;strokeColor=#666666;" vertex="1" parent="1">
                    <mxGeometry x="180" y="320" width="620" height="60" as="geometry"/>
                </mxCell>
                <mxCell id="15" value="上传" style="rounded=0;whiteSpace=wrap;html=1;fillColor=#f5f5f5;fontColor=#333333;strokeColor=#666666;" vertex="1" parent="1">
                    <mxGeometry x="230" y="275" width="80" height="40" as="geometry"/>
                </mxCell>
                <mxCell id="16" value="上传文件" style="rounded=0;whiteSpace=wrap;html=1;fillColor=#f5f5f5;fontColor=#333333;strokeColor=#666666;" vertex="1" parent="1">
                    <mxGeometry x="235" y="315" width="70" height="20" as="geometry"/>
                </mxCell>
                <mxCell id="17" value="上传文件夹" style="rounded=0;whiteSpace=wrap;html=1;fillColor=#f5f5f5;fontColor=#333333;strokeColor=#666666;" vertex="1" parent="1">
                    <mxGeometry x="235" y="335" width="70" height="20" as="geometry"/>
                </mxCell>
                <mxCell id="18" value="" style="rounded=0;whiteSpace=wrap;html=1;fillColor=#f5f5f5;fontColor=#333333;strokeColor=#666666;" vertex="1" parent="1">
                    <mxGeometry x="180" y="390" width="620" height="300" as="geometry"/>
                </mxCell>
                <mxCell id="20" value="文件名" style="text;html=1;strokeColor=none;fillColor=none;align=center;verticalAlign=middle;whiteSpace=wrap;rounded=0;fontColor=#000000;" vertex="1" parent="1">
                    <mxGeometry x="235" y="410" width="60" height="30" as="geometry"/>
                </mxCell>
                <mxCell id="21" value="修改时间" style="text;html=1;strokeColor=none;fillColor=none;align=center;verticalAlign=middle;whiteSpace=wrap;rounded=0;fontColor=#000000;" vertex="1" parent="1">
                    <mxGeometry x="450" y="410" width="60" height="30" as="geometry"/>
                </mxCell>
                <mxCell id="22" value="大小" style="text;html=1;strokeColor=none;fillColor=none;align=center;verticalAlign=middle;whiteSpace=wrap;rounded=0;fontColor=#000000;" vertex="1" parent="1">
                    <mxGeometry x="660" y="410" width="60" height="30" as="geometry"/>
                </mxCell>
                <mxCell id="24" value="" style="rounded=0;whiteSpace=wrap;html=1;fontColor=#333333;fillColor=#f5f5f5;strokeColor=#666666;" vertex="1" parent="1">
                    <mxGeometry x="200" y="415" width="20" height="20" as="geometry"/>
                </mxCell>
                <mxCell id="32" value="" style="group" vertex="1" connectable="0" parent="1">
                    <mxGeometry x="710" y="410" width="17.5" height="35" as="geometry"/>
                </mxCell>
                <mxCell id="25" value="" style="triangle;whiteSpace=wrap;html=1;rotation=90;" vertex="1" parent="32">
                    <mxGeometry y="17.5" width="17.5" height="17.5" as="geometry"/>
                </mxCell>
                <mxCell id="26" value="" style="triangle;whiteSpace=wrap;html=1;rotation=-90;" vertex="1" parent="32">
                    <mxGeometry width="17.5" height="17.5" as="geometry"/>
                </mxCell>
                <mxCell id="33" value="" style="group" vertex="1" connectable="0" parent="1">
                    <mxGeometry x="290" y="405" width="17.5" height="35" as="geometry"/>
                </mxCell>
                <mxCell id="34" value="" style="triangle;whiteSpace=wrap;html=1;rotation=90;" vertex="1" parent="33">
                    <mxGeometry y="17.5" width="17.5" height="17.5" as="geometry"/>
                </mxCell>
                <mxCell id="35" value="" style="triangle;whiteSpace=wrap;html=1;rotation=-90;" vertex="1" parent="33">
                    <mxGeometry width="17.5" height="17.5" as="geometry"/>
                </mxCell>
                <mxCell id="43" value="" style="group" vertex="1" connectable="0" parent="1">
                    <mxGeometry x="510" y="405" width="17.5" height="35" as="geometry"/>
                </mxCell>
                <mxCell id="44" value="" style="triangle;whiteSpace=wrap;html=1;rotation=90;" vertex="1" parent="43">
                    <mxGeometry y="17.5" width="17.5" height="17.5" as="geometry"/>
                </mxCell>
                <mxCell id="45" value="" style="triangle;whiteSpace=wrap;html=1;rotation=-90;" vertex="1" parent="43">
                    <mxGeometry width="17.5" height="17.5" as="geometry"/>
                </mxCell>
                <mxCell id="47" value="" style="shape=flexArrow;endArrow=classic;html=1;fontColor=#000000;fillColor=#f5f5f5;strokeColor=#666666;" edge="1" parent="1">
                    <mxGeometry width="50" height="50" relative="1" as="geometry">
                        <mxPoint x="364" y="280" as="sourcePoint"/>
                        <mxPoint x="370" y="205" as="targetPoint"/>
                    </mxGeometry>
                </mxCell>
                <mxCell id="48" value="读取成功" style="rounded=0;whiteSpace=wrap;html=1;fontColor=#333333;fillColor=#f5f5f5;strokeColor=#666666;" vertex="1" parent="1">
                    <mxGeometry x="300" y="160" width="150" height="40" as="geometry"/>
                </mxCell>
                <mxCell id="49" value="读取失败" style="rounded=0;whiteSpace=wrap;html=1;fontColor=#333333;fillColor=#f5f5f5;strokeColor=#666666;" vertex="1" parent="1">
                    <mxGeometry x="300" y="120" width="150" height="40" as="geometry"/>
                </mxCell>
                <mxCell id="50" value="" style="shape=flexArrow;endArrow=classic;html=1;fontColor=#000000;fillColor=#f5f5f5;strokeColor=#666666;exitX=0.5;exitY=0;exitDx=0;exitDy=0;" edge="1" parent="1" source="15">
                    <mxGeometry width="50" height="50" relative="1" as="geometry">
                        <mxPoint x="204" y="280" as="sourcePoint"/>
                        <mxPoint x="210" y="205" as="targetPoint"/>
                    </mxGeometry>
                </mxCell>
                <mxCell id="51" value="上传成功" style="rounded=0;whiteSpace=wrap;html=1;fontColor=#333333;fillColor=#f5f5f5;strokeColor=#666666;" vertex="1" parent="1">
                    <mxGeometry x="140" y="160" width="150" height="40" as="geometry"/>
                </mxCell>
                <mxCell id="52" value="上传失败" style="rounded=0;whiteSpace=wrap;html=1;fontColor=#333333;fillColor=#f5f5f5;strokeColor=#666666;" vertex="1" parent="1">
                    <mxGeometry x="140" y="120" width="150" height="40" as="geometry"/>
                </mxCell>
                <mxCell id="53" value="取消" style="rounded=0;whiteSpace=wrap;html=1;fillColor=#f5f5f5;fontColor=#000000;strokeColor=#666666;" vertex="1" parent="1">
                    <mxGeometry x="630" y="720" width="80" height="40" as="geometry"/>
                </mxCell>
                <mxCell id="55" value="" style="rounded=0;whiteSpace=wrap;html=1;fillColor=#f5f5f5;fontColor=#333333;strokeColor=#666666;" vertex="1" parent="1">
                    <mxGeometry x="780" y="390" width="20" height="300" as="geometry"/>
                </mxCell>
                <mxCell id="58" value="上传进度" style="rounded=1;whiteSpace=wrap;html=1;fontColor=#333333;arcSize=50;fillColor=#f5f5f5;strokeColor=#666666;" vertex="1" parent="1">
                    <mxGeometry x="400" y="210" width="230" height="20" as="geometry"/>
                </mxCell>
            </root>
        </mxGraphModel>
    </diagram>
</mxfile>